						
						<svg version="1.1" id="map_svg" xmlns="http://www.w3.org/2000/svg" xmlns:xlink="http://www.w3.org/1999/xlink" x="0px" y="0px" width="100%" height="100%" viewBox="0 0 358.121 173.087" enable-background="new 0 0 358.121 173.087" xml:space="preserve">
							<g>
								<path fill="#bbb" d="M8.823,42.056c-0.86-0.341-0.426,1.312-1.282,1.513c-0.855,0.204-1.881,0.708-1.195,0.912
									c0.682,0.201,2.22-0.102,2.394-0.405C8.909,43.773,9.081,42.157,8.823,42.056z"/>
								<path fill="#bbb" d="M2.241,44.277c-1.026-0.099-2.053,0-2.223,0.405c-0.174,0.405,0.94,0.708,1.625,0.708
									c0.683,0,2.051-0.508,1.794-0.606C3.18,44.682,2.241,44.277,2.241,44.277z"/>
								<path fill="#bbb" d="M7.884,35.488c-0.347,0.124,0.599,0.808,0.939,0.808c0.342,0,0.941-1.111,0.258-1.111
									C8.397,35.186,8.74,35.186,7.884,35.488z"/>
								<path fill="#bbb" d="M10.876,27.203c0,0,0,0,0.513,0.508c0.513,0.503,1.369,0.704,2.137,0.806
									c0.771,0.102,0.771-0.503,0.171-1.109c-0.598-0.606-0.771-0.507-1.283-0.606c-0.512-0.102-0.598-0.708-1.965-0.708
									c-1.368,0-1.197-0.808-1.368-1.213c-0.172-0.405,1.309-1.193,1.652-1.093c0.343,0.103,1.597-0.223,1.597-0.223
									s2.224-1.007,2.48-0.807c0.258,0.201,1.54-0.2,2.138-0.405c0.599-0.201,0.94-1.312,0.94-1.312s0.771,0.305,1.198,0.808
									c0.427,0.504,1.368,0,1.625,0c0.256,0,1.673,0.329,1.673,0.329s1.388-0.205,2.07-0.307c0.686-0.102,2.668,0.785,3.353,0.989
									c0.683,0.201,4.276-0.683,4.619-0.683c0.342,0,1.537,1.792,2.648,1.489s1.625,0.202,1.881,0.303
									c0.256,0.102,0.512,0.102,0.942,0.708c0.426,0.608,0.854,0.1,1.453-0.302c0.598-0.405,0.513-0.811,0.513-0.811s0,0,0.515-0.098
									c0.512-0.102,0.854,0.201,2.307,0.303c1.454,0.1,1.112-0.303,2.137-0.708c1.027-0.405,2.054,0.503,2.396,0.405
									c0.34-0.102,0.769-0.909,1.025-0.508c0.257,0.406,0.684,1.214,0.684,1.214s1.111-1.01,1.455-1.01c0.341,0,2.295,0.186,2.895,0.088
									c0.598-0.102,1.979,0.113,2.491,0.618c0.513,0.506,1.796,0.404,2.48,0.908c0.683,0.508,1.368-0.402,1.025-0.604
									c-0.342-0.203-1.197-1.01-1.197-1.01s-1.283-1.817-1.453-2.122c-0.17-0.303-0.426-0.303-0.769,0.505
									c-0.343,0.807-1.624,0.807-3.079,0.909c-1.454,0.102-0.512-0.807-2.137-0.909c-1.625-0.102-1.025-0.808-0.513-0.808
									s0.854-1.213,1.025-1.921c0.171-0.708,0.769-0.606,1.967-0.503c1.195,0.1,1.538-0.205,2.736,0c1.197,0.201,1.112-0.606,2.307-0.508
									c1.199,0.102,0.599,0.303,1.284,0.811c0.684,0.503,1.111,0.403,2.053,0.909c0.94,0.505,0.599,0.505,1.026,0.607
									c0.428,0.1,1.88-0.203,2.735-0.305c0.855-0.1,1.539-0.202,1.967,0.405c0.428,0.606,0.343,1.313,0.942,1.817
									c0.597,0.507-0.343-1.817-0.343-2.626c0-0.808,1.196-0.102,1.967-0.102c0.769,0,1.623-0.303,1.794,0.102
									c0.171,0.403-1.112,1.011-0.341,1.922c0.769,0.909,1.283,1.211,1.965,1.211c0.685,0,2.224,0.2,1.538,1.312
									c-0.682,1.111-2.477,1.011-3.076,1.011s-1.625,0.405-1.368,1.011s1.625,0.303,2.564,0.303c0.941,0,3.848,0.303,4.617,0
									c0.771-0.303,0.599-1.516-0.256-1.818c-0.854-0.303-0.17-0.909,0.685-0.708c0.856,0.202,1.71-0.303,1.539,0
									c-0.17,0.303,0.087,1.01,0.087,1.819c0,0.808,0.256,1.315,0.854,1.111c0.599-0.201,0.493-0.869,1.092-0.97
									c0.599-0.1,0.448-1.252,0.105-2.161c-0.34-0.909-0.598-1.416-0.512-1.92c0.086-0.505,1.027-0.606,1.54-0.102
									c0.512,0.507,1.196,1.514,1.196,1.514s1.027,0.708,1.368,1.517c0.343,0.81,0.428,0.607,1.112,0.102
									c0.684-0.505,0.855-0.404,1.454,0.1c0.6,0.505,0.17,1.516,0.17,1.819c0,0.305,0.855,0,1.026-0.605
									c0.172-0.605,0.855-0.605,1.284-0.808c0.427-0.203,0.427-1.416,0.427-1.416s-1.112-0.303-2.224-0.201
									c-1.11,0.098-1.453-0.102-2.308-0.81c-0.855-0.705-0.342-1.212-0.771-1.917c-0.428-0.708,1.368-1.113,2.48-1.719
									c1.111-0.605,2.222-0.202,1.966,1.313c-0.256,1.516-0.426,1.316,0.856,1.013c1.283-0.305-0.087-1.619,0.512-1.72
									c0.6-0.101,2.138-0.404,2.652-0.304c0.513,0.102,3.334-0.303,4.02-0.303c0.683,0,1.794,0.708,2.564,1.213
									c0.77,0.506,2.823,1.211,3.335,1.514c0.513,0.303,4.105,0.909,4.446,1.011c0.343,0.103,0.343,1.314,0.685,2.325
									c0.343,1.011,1.283,0.303,1.625,0.303c0.343,0,1.539,0.708,1.883,1.212c0.34,0.507,2.907,0.908,2.907,0.908
									s-0.599,0.909-0.854,1.212c-0.257,0.304-0.856,0.507-1.369,0.91c-0.515,0.406-1.112-0.1-1.798-0.605
									c-0.683-0.505-1.881-0.808-2.137-0.607c-0.256,0.204-0.084,0.607,0.086,0.911c0.169,0.302,1.282,0.708,1.967,1.313
									c0.682,0.607,0.513,1.213,0.598,2.02c0.084,0.81-0.684-0.303-1.54-0.504s-0.939,0.806-0.939,0.806s-1.114-0.098-1.626-0.098
									c-0.513,0,0,0-0.94-0.811c-0.941-0.806-0.77,0.507-1.282,0.103c-0.513-0.405-1.026-1.011-1.284-0.809
									c-0.258,0.203-1.111-0.91-1.625-0.808c-0.513,0.1-2.563-0.305-3.077-0.102c-0.514,0.202-0.941,0.202-1.368,0.404
									c-0.429,0.203-0.599-1.416-0.343-1.919c0.256-0.507,0.855-0.605,1.967-0.303c1.111,0.303,1.197,0,1.453-0.507
									c0.257-0.503,0.513-1.007,1.71-1.412c1.198-0.405-0.085-0.708-0.426-0.91c-0.343-0.201-0.771-0.606-1.027,0
									c-0.257,0.607-0.856,1.315-0.856,1.315s-0.684,0-1.624-0.102c-0.941-0.102-0.257-0.506,0.171-0.708
									c0.427-0.201,0.94-1.414,0.513-1.717c-0.426-0.304-0.599-0.505-1.367-0.304c-0.77,0.202-0.257-0.708-0.77-1.011
									c-0.513-0.303-0.343,0.205-0.343,0.607c0,0.404-0.769,0.304-0.769,0.304s-1.198-0.203-1.625,0c-0.428,0.202-1.198,0.604-0.94,0.91
									c0.257,0.303,1.111,0.303,1.367,1.211c0.256,0.908-1.11,1.113-1.367,1.211c-0.258,0.103-1.283,0.507-1.283,0.507
									s-1.025-0.303-1.88-0.303c-0.856,0-1.112,0.099-0.941,0.503s0.598,0.201,0.854,0.201s0.256,0.507,1.027,0.303
									c0.771-0.201,0.599-0.504,1.283,0.304c0.683,0.808,1.368,0.706,2.48,1.415c1.11,0.708-0.173,1.518-0.77,1.518
									c-0.598,0-0.598-0.608-0.94-1.213c-0.343-0.607-1.709,0.1-1.709,0.1s-1.114,0.708-1.71,0.708c-0.599,0-1.027-0.103-0.258-0.809
									c0.771-0.708-0.94-0.81-0.94-1.819c0-1.01-0.493,1.72-0.493,2.225c0,0.505-0.532-0.608-1.987-0.406
									c-1.453,0.201-1.197,0.809-3.079,2.22c-1.881,1.416-1.389,1.088-1.219,2.402c0.173,1.313-0.318,1.539,0.451,1.742
									c0.769,0.203,0.512,1.716,1.111,1.615c0.599-0.099,1.027-0.606,2.224,0.102c1.196,0.708,1.795,0.909,3.249,1.211
									c1.455,0.304,2.16,0.132,2.93-0.071c0.771-0.202,1.517,0.78,1.517,1.487c0,0.709,0.513,0.809,0.427,1.719
									c-0.085,0.909,0.941-0.81,0.941-0.81s0.426,1.518,0.083,1.719c-0.34,0.201,0.086,1.109,0.514,1.011
									c0.428-0.102,1.027,0.303,1.54-0.205c0.513-0.503-0.256-2.018-0.256-2.625c0-0.606-0.514-0.909-0.77-1.516
									c-0.257-0.606,0.684-0.708,1.026-0.101c0.343,0.605,0.94,0.101,1.538-0.405c0.6-0.505,0.6-1.415,0.6-1.415s-1.026-1.616-1.794-2.02
									c-0.771-0.405-0.43-0.505,0.339-0.708c0.771-0.203,0-0.506,0.173-1.617c0.171-1.111,0.171-1.818,0.598-1.818
									c0.428,0,1.966-0.303,3.25-0.201c1.282,0.102,1.881,1.212,2.736,1.314c0.854,0.098,2.221,0.303,2.479,0.806
									c0.256,0.506-1.513,0.82-0.913,1.628c0.597,0.808,1.254,0.496,1.854,0.799c0.599,0.303,1.281,0.101,2.052-1.113
									c0.771-1.212,1.11-1.314,1.366-1.111c0.258,0.203,1.885,2.425,2.311,2.932c0.428,0.504,0.84,1.972,0.926,2.48
									c0.086,0.503,1.724,0.145,2.066,0.145c0.341,0,1.625,1.112,1.794,1.72c0.173,0.605,0.514,0.809,1.625,1.111
									c1.113,0.303,0,1.412-0.256,2.018c-0.256,0.607-0.426,0.81-0.769,1.516c-0.341,0.708,0,0,0.428,0.303
									c0.428,0.304,0.598,0.708,1.283,0.507c0.685-0.203,1.025,0,1.282,0.605c0.256,0.607,0.599,1.112,0.855,1.615
									c0.256,0.507,0,1.313-0.343,0.81c-0.34-0.507-1.453-0.204-1.453-0.204s-0.513,0.606-0.685,0.303
									c-0.17-0.303-0.512-0.705-1.112-0.504c-0.597,0.201-1.195,0-1.881,0.103c-0.684,0.098-0.94-0.405-0.513-0.811
									c0.428-0.401,0.513-1.917,1.368-2.525c0.855-0.606,0.6-1.514,0-1.514c-0.599,0-0.855,0.908-1.197,1.111
									c-0.343,0.201-1.512-0.375-2.111,0.129c-0.598,0.506-1.566,0.881-0.967,1.083c0.598,0.202-0.855,1.012-1.367,1.012
									c-0.515,0-0.343-1.315-0.343-1.82c0-0.505-0.684,0.303-0.684,0.303s-1.368-0.909-1.881-0.303c-0.514,0.607-2.361,0.347-2.959,0.953
									c-0.599,0.608-0.888,2.178-0.888,2.178s0.514-0.302,1.539-0.605c1.025-0.303,0.94-0.2,1.794-0.705
									c0.856-0.507,1.712-0.708,2.311,0.202c0.597,0.908-0.256,1.412-0.256,1.412s0.341,0.708,0.682,0.91
									c0.343,0.203,0.428-0.202,1.027-0.607c0.598-0.401,0.342,0.81,0.515,1.213c0.17,0.405,0.77,0.405,1.11-0.1
									c0.341-0.506,0.598-0.909,0.854-0.606c0.256,0.303,0.514,1.009,0.771,1.717c0.257,0.708-1.795,0.911-2.137,1.011
									c-0.342,0.1-1.968,0.505-2.224,0.607c-0.256,0.099-1.11,1.007-1.795,1.007c-0.683,0-0.6-1.211-0.683-1.917
									c-0.086-0.708-0.942,0.101-1.027,0.403c-0.084,0.303-0.855,0.204-1.453,0.303c-0.599,0.102-1.624,0.811-1.624,1.616
									c0,0.809,1.206,1.677,0.949,2.081c-0.256,0.405-2.233,0.244-2.832,0.042c-0.598-0.202-1.453,0.303-1.196,0.708
									c0.256,0.403,0.086,1.008-0.513,0.91c-0.599-0.102-0.685,0.606-0.428,1.11c0.256,0.503-0.771,1.514-1.027,1.111
									c-0.257-0.403-0.77-0.607-0.77,0c0,0.605,0.502,1.443,1.016,2.252c0.513,0.808-1.442,0.983-2.042,1.588
									c-0.599,0.606-1.934,2.682-2.788,3.087c-0.856,0.403-1.573,1.66-1.147,2.164c0.429,0.507,0.942,2.627,1.199,3.335
									c0.256,0.708-0.087,2.726-0.856,2.628c-0.769-0.102-0.343-1.313-1.112-1.616c-0.769-0.303-1.197-2.123-1.368-3.336
									c-0.169-1.211-0.341-0.503-0.855-0.102c-0.513,0.406-1.025-0.805-1.281-1.109c-0.257-0.303-1.525,0.588-2.551,0.49
									c-1.025-0.102-1.553,0.116-1.553,0.419c0,0.302-0.17,1.211-1.112,0.606c-0.94-0.606-1.112-0.606-2.052-0.606
									c-0.94,0-1.795-0.103-1.965,0.302c-0.172,0.406-1.112,1.313-1.711,1.517c-0.599,0.203-1.709,1.213-1.196,1.414
									c0.514,0.203,0.514,1.618,0.171,2.424c-0.343,0.809-0.257,2.223-0.087,3.637c0.171,1.416,1.199,2.324,2.139,3.233
									c0.94,0.911,1.284,1.213,2.223,0.404c0.942-0.808,1.282-0.302,1.54-0.201c0.256,0.101,0.94-0.506,0.684-1.416
									c-0.256-0.908,0.343-1.718,1.112-1.616c0.769,0.102,1.88-0.303,2.479-0.202c0.599,0.1,0.94,2.019,0,2.827
									c-0.94,0.811-0.428,2.023-0.599,2.932c-0.17,0.908-0.94,1.109,0,1.109c0.942,0,0.686,0.204,1.283,0.303
									c0.598,0.104,1.197-0.605,1.796-0.708c0.597-0.097,2.137,1.517,1.88,2.327c-0.256,0.808-0.512,2.219-0.428,3.533
									c0.085,1.314,0.428,1.416,0.598,1.82c0.173,0.404,0.855,1.314,1.624,0.909c0.769-0.404,1.54-0.706,1.796-1.111
									c0.258-0.404,1.882,0.707,1.711,1.011c-0.171,0.301,0.598,0.606,1.111,0.301c0.513-0.301,0.77-0.807,1.283-1.615
									c0.513-0.809,1.37-1.516,1.796-1.617c0.427-0.099,1.455-1.313,2.137-1.108c0.686,0.2-0.257,1.21-0.342,1.816
									c-0.085,0.605,0,2.324,0.342,2.425c0.342,0.1,0.172-1.212,0.599-2.121c0.428-0.91,1.282-1.417,1.711-1.417
									c0.426,0,0.769,2.124,1.366,1.519c0.6-0.605,1.796-0.508,2.053,0.1c0.256,0.606,0.512,0.91,0.512,0.91s0.43-0.404,0.43-0.91
									c0-0.505,1.366-1.012,2.224-0.404c0.854,0.605,0.512,0.809,0.938,0.91c0.428,0.101,0.856-1.313,1.112-1.416
									c0.256-0.102,0,1.618-0.599,2.527c-0.598,0.91,0.512,0.607,0.512,0.607s0,0,0.256,0.303s1.112-0.303,1.455,0.303
									c0.343,0.606,0.942,0.807,1.455,1.921c0.513,1.108,1.099,0.126,2.124-0.075c1.027-0.205,2.493,1.285,3.518,2.598
									c1.026,1.314,0.856,2.326,1.539,2.326c0.686,0,0.855,1.109,0.855,1.514s-1.538,1.314-2.394,1.517
									c-0.855,0.202-0.855,1.214,0.513,0.91c1.369-0.304,0.77-0.91,1.625-1.214s1.711,0.404,0.942,1.617
									c-0.772,1.21-2.311,1.313-0.942,1.513c1.368,0.204,0.599-0.2,1.368-1.411c0.77-1.213,0.683-0.809,1.199-0.809
									c0.513,0,1.622,0.304,2.051,0.707c0.429,0.402,1.537,1.01,2.223,1.513c0.682,0.507,1.538,0.304,2.051,0.103
									c0.513-0.201,1.967,0.605,2.479,1.413c0.513,0.812,1.798,0.911,2.394,1.214c0.599,0.303,1.541,1.514,1.625,2.525
									c0.087,1.01-0.939,3.133-1.025,3.639c-0.083,0.503-1.451,2.321-2.736,3.535c-1.282,1.212-0.513,2.627-0.426,3.232
									c0.083,0.606-0.856,2.826-0.599,3.334c0.256,0.504-0.343,1.615-0.856,2.324c-0.513,0.708-0.855,2.018-1.195,2.623
									c-0.343,0.607-1.455,0.406-2.48,0.709c-1.025,0.303-1.542,0.607-1.542,0.607s-1.794,1.011-2.819,1.819
									c-1.025,0.806,0.34,2.221-0.173,3.333c-0.512,1.111-0.931,0.117-1.444,1.429c-0.513,1.313-0.863,1.099-1.292,1.399
									c-0.427,0.305-0.683,1.109-0.769,1.919c-0.083,0.809-0.939,1.616-2.051,2.83c-1.112,1.21-1.797,1.011-2.993,0.605
									c-1.198-0.404-1.025-3.839-1.198-3.335c-0.17,0.505-0.759,2.254-0.589,2.561c0.17,0.301,1.36,1.482,1.787,1.785
									c0.427,0.303,0.341,0.807,0,1.314c-0.343,0.502-1.281,2.324-1.624,2.424c-0.343,0.101-2.993,0.506-3.506,0.202
									c-0.512-0.302-0.768,0.708-0.685,1.315c0.086,0.604,0.513,1.309-0.426,1.108c-0.942-0.2-2.224-0.908-2.224-0.405
									c0,0.508,0.257,1.619,0.769,1.619c0.513,0,1.027-0.405,0.771,0.302c-0.259,0.707-0.941,1.314-1.283,1.617
									c-0.344,0.305-0.77,1.312-1.625,2.02c-0.855,0.707-0.855,1.111-0.684,1.414c0.171,0.303,1.453,0.102,1.709,0.303
									c0.256,0.202-0.256,1.618-0.598,1.922c-0.341,0.303-1.795,1.715-2.395,2.119c-0.6,0.405-0.6,1.619-0.427,2.224
									c0.17,0.606,1.539,2.122,2.307,2.425c0.771,0.304,2.396,0.202,2.224,0.504c-0.169,0.303-2.05,0.606-2.307,0.708
									c-0.257,0.101-1.626,0.506-2.31,0.506c-0.683,0-1.967-0.81-2.224-0.81s0.173-0.404,1.026-1.211
									c0.854-0.809-0.341-1.718-0.512-0.605c-0.172,1.11-0.514,1.412-0.94,1.412c-0.43,0-0.942-0.707-1.199-1.011
									c-0.256-0.304-1.368-0.604-1.195-1.817c0.17-1.213-0.514-1.111-1.027-1.617c-0.514-0.504,0.685-0.908,0.513-1.415
									c-0.171-0.503-0.941-0.2-1.027-0.908c-0.085-0.706,0.684-1.717,0.77-2.02c0.085-0.304-0.514-0.91-0.599-1.415
									c-0.085-0.507,0.343-1.01,0.941-1.816c0.599-0.811,1.025-1.82,1.025-2.123s-0.427-1.415-0.427-2.223
									c0-0.806,0.427-1.109,0.599-2.223c0.17-1.111-0.599-0.706-0.599-1.616c0-0.908,0.855-0.606,0.684-1.515
									c-0.171-0.909,0.428-1.517,0.685-2.123c0.256-0.606,0.513-1.615,0.855-2.323c0.342-0.708-0.343-2.322-0.343-2.627
									c0-0.301,1.111-0.707,0.599-1.313c-0.513-0.607,0.448-0.808,0.962-1.313c0.512-0.507-0.363-2.223-0.106-4.04
									c0.256-1.82,0.512-4.951,0.512-5.254c0-0.305,0.086-1.516-0.342-2.324c-0.426-0.811-0.939-1.416-1.539-1.719
									c-0.599-0.303-1.368-1.214-1.797-1.313c-0.426-0.103-3.013-0.953-3.013-2.369c0-1.414-0.918-2.582-1.09-3.592
									c-0.171-1.009-1.453-3.232-1.54-4.242c-0.085-1.01-1.881-1.313-2.137-2.426c-0.256-1.111,0.381-1.832,0.55-2.539
									c0.172-0.709-0.124-2.309-0.208-2.814c-0.086-0.505,0.768-2.173,1.281-2.477c0.512-0.303,1.456-1.361,1.795-1.361
									c0.344,0,0.258-1.113,0.6-2.225c0.343-1.111-0.17-2.624-0.427-2.829c-0.256-0.2-0.512-1.515-0.942-1.917
									c-0.426-0.404-1.281-0.203-1.281-0.203s0.169,0.908-0.6,1.416c-0.769,0.504-0.94-0.104-1.196-0.405
									c-0.257-0.304-1.197-0.405-1.625-0.909c-0.428-0.508-1.112-1.213-1.626-1.516c-0.513-0.304-1.76-0.566-1.673-1.779
									c0.085-1.21-0.634-1.959-0.977-2.16c-0.341-0.205-1.024-0.708-1.453-0.404c-0.427,0.302-1.197-0.606-1.796-0.506
									c-0.599,0.102-1.796-1.213-2.223-1.72c-0.427-0.505-0.769-1.213-1.538-1.213c-0.771,0-0.856,0.304-1.369,1.011
									c-0.513,0.709-1.283-0.503-1.539-0.807c-0.256-0.301-1.503,0.204-2.444,0.204c-0.94,0-1.37-1.932-1.403-2.325
									c-0.129-1.508-2.736-1.517-3.335-1.92c-0.599-0.405-1.198-1.921-0.942-2.323c0.256-0.405-0.426-1.719-0.426-1.719
									s-1.198-1.617-1.625-1.617c-0.428,0-1.796-2.827-2.566-3.635c-0.77-0.808-2.563-2.63-2.906-3.538
									c-0.341-0.909-0.428-2.322-1.281-1.614c-0.856,0.706-0.173,1.414,0.682,2.22c0.856,0.811,0.686,1.618,1.882,2.729
									c1.198,1.114,0.685,2.223,1.198,2.726c0.513,0.507,2.309,1.719,1.538,2.527c-0.769,0.81-1.538-1.011-1.881-1.111
									c-0.341-0.102-1.111-0.303-1.025-0.908c0.087-0.605-0.684-1.113-1.283-2.021c-0.597-0.909-0.854-0.404-1.623-0.404
									c-0.771,0-0.086-1.111,0.34-1.617c0.429-0.505-0.426-1.212-0.938-1.413c-0.513-0.206-1.199-2.526-1.881-3.941
									c-0.686-1.416-1.198-2.12-1.967-2.022c-0.769,0.103-2.041-0.665-2.554-1.07c-0.512-0.405-0.354-2.667-1.208-3.677
									c-0.856-1.011-1.626-2.928-1.54-4.042c0.085-1.111,0.341-3.939,0.341-4.645c0-0.708-0.66-2.052-0.66-2.354
									s-0.196-1.184-0.537-1.282c-0.342-0.102-1.454-1.094-2.223-1.094c-0.769,0-1.111-1.433-0.855-2.142
									c0.256-0.706-0.684-1.917-1.112-1.917s-1.112-1.315-1.368-2.021c-0.256-0.708-0.94-0.708-0.769-0.305
									c0.17,0.405-0.086,1.112,0.341,1.315c0.428,0.201,0.771,1.817,0.428,2.018c-0.343,0.205-1.112-0.605-1.967-1.109
									c-0.855-0.505-0.513-2.527-0.513-3.032c0-0.505-1.197-1.011-1.711-1.011c-0.513,0-1.025,0.102-1.111-1.211
									c-0.086-1.314-1.625-2.021-2.139-2.021c-0.512,0-3.394-0.983-4.249-0.983c-0.854,0-2.162-1.241-2.677-0.836
									c-0.513,0.404-1.453-0.708-1.966-0.708s-0.241,1.375-1.184,2.081c-0.94,0.708-1.553-0.667-2.066-0.161
									c-0.512,0.505-1.796,1.01-1.368-0.201c0.427-1.213,0.427-1.416-0.256-1.113c-0.686,0.303-0.856,1.113-0.856,1.619
									c0,0.505-1.196,1.312-1.196,1.312s1.11,0.103,1.54,0c0.426-0.098,0.084,1.113-0.344,1.416c-0.426,0.303-1.025,1.109-1.71,0.909
									c-0.683-0.202-0.77-0.909-1.195-1.011c-0.429-0.102-0.896,1.305-2.437,2.213c-1.54,0.911-1.755-0.394-2.354-0.091
									c-0.598,0.302-2.736,1.213-3.506,1.313c-0.769,0.1-0.599-1.111-0.169-1.111c0.426,0,2.051-0.91,2.478-1.213
									c0.428-0.302,2.309-1.111,2.822-1.414c0.514-0.303,1.368-0.807,1.027-1.414c-0.342-0.606-1.454,0.305-1.454,0.305
									s-0.855-0.911-1.112-1.113c-0.256-0.202-0.771,0.809-0.771,0.809s-1.11-0.203-0.854-1.313c0.257-1.112-0.599-1.112-0.769-0.606
									c-0.173,0.505-1.624,1.313-1.711,0.808c-0.086-0.505-1.368-1.517-1.711-2.324c-0.342-0.807,0.343-0.909,1.112-1.617
									c0.77-0.706,1.881-0.908,2.823-0.806c0.941,0.1,1.538-1.213,1.197-1.315c-0.343-0.101-0.94-0.203-1.453,0.303
									c-0.514,0.507-1.797,0.405-1.797,0.405s-1.881,0-2.65-0.605C7.628,29.425,7.2,28.517,7.2,28.517s1.54-0.708,2.736-0.806
									L10.876,27.203z M89.201,57.31c0.854,0.111,0.854-1.312,0.769-1.717c-0.085-0.405-0.085-2.12,0.258-2.425
									c0.34-0.303,0.77-1.211,1.71-1.313c0.94-0.1,1.539,0.708,1.453,1.618c-0.086,0.909,0.17,1.817,0.513,1.817s1.368-0.708,1.026-1.313
									c-0.341-0.606,0.256-2.628,0.256-1.919c0,0.708,0.686,1.213,1.113,1.111c0.428-0.101-0.427-1.919-1.027-2.02
									c-0.599-0.102-1.794-0.102-2.05,0c-0.256,0.1-1.711-0.507-2.397-0.405c-0.683,0.103-1.708,0.405-2.051,1.213
									c-0.342,0.809,0,2.323-0.086,2.928C88.604,55.49,88.431,57.209,89.201,57.31z M93.989,57.31c0.195,0.461,1.112,0.102,1.625-0.506
									c0.512-0.605,1.624-0.806,1.967-1.313c0.339-0.504,0.597-0.401,1.451-0.807c0.856-0.405,1.54-0.503,1.199-1.01
									c-0.343-0.506-2.138,0-2.394-0.201c-0.256-0.203-2.054,2.222-2.054,2.222s-1.538,0.707-1.624,1.009
									C94.075,57.007,93.733,56.704,93.989,57.31z M85.096,49.532c0,0.543,0.854,0.605,1.367,0.303c0.515-0.303,1.285-0.504,1.626-0.605
									c0.342-0.103,0.171,0.503,0.94,0.503s1.711,0.302,1.968,0.204c0.256-0.102,1.025-1.313,0.426-1.416
									c-0.599-0.1-1.538-0.808-2.051-1.414c-0.512-0.606-1.711,0.808-2.823,1.313C85.438,48.926,85.096,48.725,85.096,49.532z
									 M50.038,46.196c-0.698-0.273,0.256,1.213,0.684,1.517c0.428,0.304,1.283,0.304,1.37,0.808c0.083,0.507,0.339,1.719,0.769,1.617
									c0.426-0.103,0.426-1.211,0.085-1.617c-0.341-0.403-1.625-1.616-1.881-1.616S50.294,46.298,50.038,46.196z"/>
								<path fill="#bbb" d="M92.278,32.323c-0.233,0.303,1.025,0.741,1.254,0.336C93.761,32.257,92.848,31.581,92.278,32.323z"/>
								<path fill="#bbb" d="M95.586,32.929c-0.908,0.306-0.059,1.077,0.513,0.808C96.667,33.468,96.383,32.659,95.586,32.929z"/>
								<path fill="#bbb" d="M53.06,16.497c-0.116,0.409,0.511,0.402,1.252,0.402s1.939,0,2.282-0.201
									c0.342-0.201,2.051-0.672,1.995-0.067c-0.059,0.607,0.683,1.549,1.081,1.414c0.401-0.136,1.198-1.01,1.597-0.673
									c0.4,0.337,0.458,1.144,0.855,1.346c0.4,0.203,1.482,0.203,1.995,0c0.513-0.202,1.939-0.202,2.567-0.067
									c0.626,0.137,2.45,0.54,2.622,0.137c0.17-0.405,0.683-0.472,0.741-0.878c0.056-0.405,0.34-1.684,0.34-1.684
									s-0.34-0.739-0.911-0.403c-0.568,0.336-0.741,0.54-1.254,0.403c-0.513-0.133-0.513-1.213-1.426-1.009
									c-0.911,0.2-1.082,0.809-1.366,1.076c-0.286,0.271-0.913,0.471-1.14,0.338c-0.228-0.134-1.541-1.011-1.541-1.011
									s-2.737-0.133-2.85-0.539c-0.114-0.403-0.57-1.076-1.825-0.942c-1.254,0.134-3.42,1.012-3.763,1.012
									c-0.34,0,0.401,0.806-0.056,0.806C53.799,15.957,53.231,15.89,53.06,16.497z"/>
								<path fill="#bbb" d="M62.75,13.735c-0.66,0.259-0.513,1.011-0.056,1.011c0.454,0,1.597-0.473,1.937-0.136
									c0.343,0.336,1.199,0.068,1.14-0.27c-0.056-0.335,0.343-1.686-0.34-1.751C64.745,12.521,63.777,13.33,62.75,13.735z"/>
								<path fill="#bbb" d="M70.447,12.859c-0.088,0.48,0.455,0.876,1.139,0.876c0.686,0,2.167-0.405,2.279-0.07
									c0.114,0.34-0.056,0.608,0.741,0.741c0.801,0.137,1.141,0.272,1.597,0.272c0.457,0,0.284-0.878-0.114-1.483
									c-0.398-0.606-0.284-0.537-1.31-0.876c-1.027-0.336-2.054-0.336-2.736-0.27C71.357,12.118,70.616,11.916,70.447,12.859z"/>
								<path fill="#bbb" d="M71.586,15.957c-0.431,0.445,0,1.817-0.171,1.952c-0.169,0.136,0.057,0.741,0.515,0.606
									c0.456-0.133,0.682-1.413,1.025-1.413s2.109-0.472,2.394,0.269c0.286,0.739,0.286,0.403,1.084,0.473
									c0.797,0.065,1.424-0.942,1.482-1.281c0.057-0.338-0.399-1.011-1.482-0.876C75.348,15.822,72.043,15.486,71.586,15.957z"/>
								<path fill="#bbb" d="M73.696,19.526c-0.396,0.299-0.172,1.281,0.457,1.346c0.627,0.069,1.709-0.47,1.822-0.065
									c0.115,0.405,0.513,2.222,1.54,1.616c1.027-0.605,0.97-1.146,1.255-1.211c0.284-0.069-0.059-1.551-0.514-1.889
									c-0.456-0.335-1.938-0.133-2.336,0.07C75.519,19.595,74.323,19.055,73.696,19.526z"/>
								<path fill="#bbb" d="M80.136,20.133c0.066,0.184,0.514,0.536,1.255,0.403c0.74-0.135,1.822-0.27,2.335-0.335
									c0.514-0.067,0.628-1.08,0.058-1.146c-0.571-0.067-1.025-0.673-1.538-0.471C81.733,18.787,79.965,19.66,80.136,20.133z"/>
								<path fill="#bbb" d="M79.965,17.303c-0.249,0.708,2.282,1.079,1.997,0.27C81.676,16.763,80.25,16.497,79.965,17.303z"/>
								<path fill="#bbb" d="M80.422,13.868c-0.723-0.206-1.938-0.469-1.938-0.673c0-0.201-0.342,0.944,0.286,1.281
									c0.627,0.335,1.652,0.941,2.394,1.28c0.741,0.336,2.165,0.402,2.622,1.077c0.456,0.671,1.996,1.212,1.996,1.212l1.825,0.204
									c0,0,1.254-0.339,2.564-0.204c1.313,0.135,3.249,0.337,4.333,0.27c1.084-0.066,1.254-0.471,1.369-0.741
									c0.114-0.27-1.995-0.81-2.508-0.741c-0.515,0.066-3.422,0.066-4.276,0c-0.855-0.069-1.938-0.069-2.624,0
									c-0.682,0.066-1.195-0.538-1.709-0.876c-0.512-0.337-1.652-1.414-2.336-1.55C81.733,14.273,81.848,14.273,80.422,13.868z"/>
								<path fill="#bbb" d="M151.943,27.876c-0.229,0.451-0.683,0.473-0.229,1.417c0.457,0.941,0.8,1.479,1.198,1.414
									c0.398-0.068,1.767-0.136,1.94,0.404c0.169,0.539,0.626,1.012,1.593,0.672c0.97-0.336,1.767-0.537,1.995-0.942
									c0.229-0.404,1.77-0.47,1.77-0.47s1.254-1.146,0.796-1.616c-0.457-0.473-1.537-0.811-2.053-0.878
									c-0.513-0.067-1.025,0.473-2.165,0.473s-1.88,0.539-2.338,0C153.997,27.809,152.113,27.541,151.943,27.876z"/>
								<path fill="#bbb" d="M103.375,14.541c0.627,0.54,0.991,0.205,1.773,0.405c0.78,0.201,1.406,1.685,1.824,1.887
									c0.417,0.202,0.989,0,1.251-0.405c0.26-0.402,0.624-1.817,0.624-1.817s0,1.347,0.626,1.615c0.625,0.271,2.189-0.2,2.607-0.133
									c0.417,0.066,2.866,0.471,3.543,0.874c0.678,0.405,2.344,0.675,2.814,1.549c0.468,0.875,0.521,3.906,0.78,4.243
									c0.261,0.338,1.146-1.078,1.356-1.412c0.208-0.339,1.305-0.135,1.668,0.334c0.364,0.472,1.197,1.618,1.146,2.089
									c-0.054,0.47-0.209,1.211-0.522,0.942c-0.311-0.27-0.833-0.202-0.624-0.741c0.209-0.538,0.311-1.683-0.104-1.683
									c-0.418,0-0.782,0-0.782,0s-0.782-0.27-1.301,0.741c-0.523,1.01-0.106,2.021,0.26,2.021c0.364,0,1.199,0,1.199,0.266
									c0,0.272-0.886,1.08-0.835,1.551c0.054,0.473,0.73,2.087,0.939,2.425c0.207,0.335,1.303,0.673,1.614,0.741
									c0.314,0.067-0.729,0.133-0.469,0.605c0.263,0.472,0.678,1.615,1.251,1.885c0.573,0.271,2.188,1.482,2.397,2.021
									c0.209,0.539,1.46-0.403,1.722-0.471c0.259-0.065,0.207,1.414,0.938,1.482c0.728,0.065,0.988-0.136,1.614-0.741
									c0.625-0.606,0.469-1.414,0.52-2.02c0.054-0.607,0-1.078,0.678-0.877c0.677,0.201,1.042-0.135,0.991-0.807
									c-0.051-0.674-0.624-1.483,0.469-1.686c1.095-0.2,1.668-1.077,2.347-1.077c0.678,0,2.553,0.338,2.762,0
									c0.209-0.335,1.098-2.349,1.674-2.414c0.573-0.07,2.079,0.259,3.434-0.011c1.355-0.268,2.816-1.278,3.284-1.212
									c0.469,0.066,1.615,0.066,1.251-0.336c-0.364-0.405-0.887-1.347-1.668-1.347c-0.783,0-0.911-2.078-0.706-2.078
									c0.208,0,2.111,0.796,2.061,1.47c-0.05,0.675,0.313,1.549,1.355,1.282c1.042-0.271,0.884-1.282,0.678-1.551
									c-0.209-0.27-0.364-0.945-0.573-1.414c-0.209-0.473-0.706-1.953,0.39-2.087c1.095-0.135,3.154,1.412,3.101,0.336
									c-0.051-1.079,0-2.225,0.313-2.83c0.313-0.606,0.992-1.011,0.627-1.212c-0.367-0.2-0.835,0.271-1.2-0.74
									c-0.364-1.011,0.314-1.752,0.729-2.157c0.418-0.402,2.606-3.03,3.807-3.434c1.197-0.405,2.034-1.954,1.197-2.29
									c-0.833-0.337-2.501-0.943-3.594,0.133c-1.095,1.08-1.72,2.087-2.97,1.751c-1.251-0.336-1.441-2.121-2.153-3.04
									c-1.032-1.333-0.402-3.964-1.496-3.761c-1.096,0.202-1.096,0.202-1.096,0.202s-1.283-0.27-2.075-0.069
									c-1.042,0.264-1.717,1.003-2.313,0.844c-1.168-0.313-2.217,0.408-2.512,0.484c-2.554,0.661-4.606-0.242-4.983-0.306
									c-0.295-0.051,1.79,0.284,3.401,0c1.24-0.219,3.326-0.719,4.35-0.92c1.024-0.201,0.2-0.68-0.162-0.728
									c-1.32-0.172-3.32-0.812-4.9-0.907c-1.242-0.074-2.042,0.372-3.282,0.409c-1.586,0.048-3.478-0.062-4.721,0.841
									c-1.092,0.794-2.497,0.879-2.61,1.025c-0.624,0.807-1.197,2.828-1.77,2.291c-0.574-0.539-0.678-1.885-1.407-1.347
									c-0.731,0.538-0.053,1.885-0.681,2.828c-0.624,0.943-2.396,0.808-2.917,0.473c-0.521-0.335-1.042-0.605-3.127-0.473
									c-2.085,0.137-4.378,0.943-3.91,1.751c0.469,0.808-0.938,1.279-1.302,0.877c-0.365-0.405-2.033,0.469-1.929,1.278
									c0.105,0.807-0.261,1.751-1.146,1.548c-0.888-0.202-1.513,0.473-1.565,1.145c-0.052,0.675-2.033,1.146-2.188,1.146
									C104.989,13.8,102.437,13.735,103.375,14.541z"/>
								<path fill="#bbb" d="M91.679,79.94c-0.085,1.009,0.771,0.706,1.797,0.706c1.025,0,2.821-0.2,3.163,0.303
									c0.343,0.507,1.881,1.313,2.309,1.719c0.428,0.402,1.795,0.503,1.881,0.099c0.086-0.402-0.94-1.515-1.54-1.413
									c-0.598,0.102-1.881-0.708-2.563-1.414c-0.686-0.708-1.968-0.708-2.48-0.708S91.679,79.94,91.679,79.94z"/>
								<path fill="#bbb" d="M97.921,77.111c-0.781,0.101-0.596,1.21,0.344,1.009C99.206,77.918,98.691,77.008,97.921,77.111z"/>
								<path fill="#bbb" d="M98.35,85.479c-0.785,0.166-0.599,1.969,0.341,1.64C99.632,86.792,99.119,85.313,98.35,85.479z"/>
								<path fill="#bbb" d="M109.635,84.367c-0.781,0.166-0.596,1.972,0.343,1.64C110.92,85.68,110.406,84.201,109.635,84.367z"/>
								<path fill="#bbb" d="M101.856,84.79c0,0,0.94,0.201,1.538,0.201c0.6,0,0.942,0.405,1.455,0.708
									c0.513,0.303,1.455-0.404,1.794-0.404c0.343,0,0.771,1.211,0.856-0.101c0.086-1.314-1.025-1.92-1.71-2.124
									c-0.684-0.202-1.453,0-1.965,0.101C103.309,83.273,101.856,84.79,101.856,84.79z"/>
								<path fill="#bbb" d="M173.51,64.989c0.343-0.201,1.708-0.708,2.48-1.111c0.77-0.405,3.249-1.416,3.589-1.416
									c0.343,0,4.617,0.102,5.216-0.202c0.6-0.303,2.914-0.731,3.597,1.491s-0.773,1.341-1.456,1.742
									c-0.686,0.405,0.257,1.314,0.596,1.314c0.344,0,1.539,1.313,2.138,1.313s2.054,0.708,2.054,0.708s1.451,1.314,2.224,1.314
									c0.769,0,2.072,1.568,2.928,0.559c0.853-1.011,1.261-3.086,2.117-2.884c0.854,0.204,1.796,1.011,2.905,1.011
									c1.111,0,3.166-0.202,3.508,0.303c0.344,0.505-2.311,2.222-2.14,2.626c0.173,0.402,0.515,0.304,1.37-0.909
									c0.854-1.213,2.139-1.213,3.163-1.515c1.026-0.303,1.542,1.614,1.712,2.22c0.169,0.605,0.939,1.718,1.537,3.032
									c0.6,1.313,1.194,3.131,1.881,4.546c0.686,1.417-0.08,4.253,0.605,5.162c0.684,0.911,2.474,1.709,2.9,2.921
									c0.429,1.213,1.454,2.424,1.797,2.525c0.344,0.101,1.795,2.422,1.881,3.028c0.084,0.606-0.513,1.922,0.853,2.022
									c1.372,0.102,2.567-0.708,2.996-0.909c0.427-0.2,3.761-1.72,4.188-1.113s-0.597,3.235-0.684,3.943
									c-0.086,0.706-2.566,4.141-2.652,5.05c-0.083,0.911-1.538,2.527-2.477,2.729c-0.941,0.201-2.91,3.032-3.593,3.941
									c-0.685,0.908-1.798,2.927-2.31,3.129c-0.513,0.203-0.908,2.887-0.65,3.293c0.256,0.401,0.307,2.266,1.079,3.074
									c0.77,0.809,1.025,1.414,0.683,2.121c-0.342,0.705,0.173,2.323,0,3.637c-0.17,1.312-1.624,2.621-1.967,3.023
									c-0.339,0.405-1.965,1.523-2.65,2.532c-0.687,1.011-1.281,1.921-1.111,2.424c0.169,0.509,0.855,3.03,0.768,3.636
									c-0.082,0.608-2.35,0.92-3.035,1.322c-0.685,0.405,0.304,1.711,0.473,2.519c0.17,0.808-1.197,2.124-1.797,2.829
									c-0.6,0.708-2.224,3.131-3.332,4.041c-1.113,0.911-2.715,0.727-3.828,0.627c-1.109-0.102-2.93,0.89-3.357,1.394
									c-0.429,0.507-1.023,0.404-1.879-0.099c-0.857-0.508-0.943-1.213-1.026-2.327c-0.087-1.111-0.343-1.817-0.343-1.817
									s-0.256-1.716-1.027-2.523c-0.77-0.811-1.027-1.719-1.452-2.328c-0.427-0.604,0.792-2.328,0.705-3.439s-1.562-2.416-1.987-3.125
									c-0.43-0.708-1.285-2.627-1.627-3.335c-0.34-0.708-0.77-2.12-0.684-4.14c0.088-2.021,0.954-3.203,1.641-3.811
									c0.686-0.605,0.414-1.342-0.186-2.553c-0.6-1.215,0.087-3.237-0.43-3.941c-0.512-0.708-1.305-4.654-2.247-5.26
									c-0.942-0.606-1.94-0.602-1.428-2.015c0.513-1.415,0-2.829,0.855-3.738c0.855-0.908,0.427-1.515-0.513-2.122
									c-0.941-0.606-0.599-0.908-1.367-0.201c-0.773,0.707-1.798,1.111-2.395,0.402c-0.6-0.706-0.43-1.817-1.541-2.627
									c-1.111-0.805-2.893-0.529-3.322-0.328c-0.426,0.203-1.295,1.945-2.494,2.147c-1.195,0.204-2.051-0.101-3.249-0.101
									c-1.196,0-2.223,0.101-2.394,0.81c-0.169,0.706-0.426,1.111-1.195,0.403c-0.772-0.707-2.31-2.324-2.31-2.324
									s-1.42-2.787-1.85-4.002c-0.426-1.211-1.912-1.252-3.536-2.162c-1.625-0.908-0.686-1.918-0.856-2.928
									c-0.17-1.012-1.025-1.416-0.599-1.518c0.429-0.102,0.343-0.807,1.282-2.222c0.942-1.413,0.342-2.93,0.173-3.739
									c-0.173-0.808-1.026-2.019-0.173-3.333c0.855-1.313,1.391-4.447,2.074-5.256c0.686-0.808,2.716-1.615,3.655-2.118
									c0.941-0.508,0.343-1.818,0.855-3.334s1.285-2.224,1.542-2.224c0.256,0,1.205-1.049,2.22-1.715
									C171.371,64.583,173.167,65.189,173.51,64.989z M210.878,106.511c-0.232-0.437-1.712-0.306-1.968,0.201
									c-0.256,0.506-0.513,2.827,0.256,3.031C209.936,109.945,211.305,107.319,210.878,106.511z"/>
								<path fill="#bbb" d="M226.438,121.46c-1.072-0.361-1.196,1.316-2.051,2.427c-0.855,1.109-1.795,2.018-2.139,1.919
									c-0.343-0.103-2.223,0.707-1.623,2.221c0.595,1.516,0.512,3.033-0.086,3.74c-0.6,0.708,0.512,2.727,0.342,3.84
									c-0.173,1.109,0.256,1.816,1.455,1.816c1.195,0,1.624-0.503,2.137-1.816c0.513-1.315,0.596-2.628,1.109-3.737
									c0.515-1.113,0.941-3.438,1.197-4.042c0.258-0.606,0.772-2.528,0.686-3.638C227.379,123.08,227.037,121.664,226.438,121.46z"/>
								<path fill="#bbb" d="M257.477,95.5c-0.554,0.289-1.123,5.15-0.096,5.555c1.027,0.406,1.723-3.031,1.381-3.535
									C258.418,97.015,258.248,95.094,257.477,95.5z"/>
								<path fill="#bbb" d="M185.481,57.815c-0.807,0-1.198,1.518-0.687,2.021c0.514,0.504,1.029,0.405,1.455-0.302
									C186.68,58.826,185.908,57.815,185.481,57.815z"/>
								<path fill="#bbb" d="M178.983,59.432c-0.207,0.383,0.683,0.507,0.853,0.102C180.008,59.128,179.579,58.32,178.983,59.432z"/>
								<path fill="#bbb" d="M189.156,61.15c-0.313,0.219,0.513,0.909,0.942,1.109c0.429,0.202,0.769,0.81,1.112,0.91
									c0.342,0.103,1.451,0,1.111-1.011c-0.343-1.009-1.111-1.009-1.369-1.009C190.697,61.15,189.586,60.847,189.156,61.15z"/>
								<path fill="#bbb" d="M168.72,40.741c-0.775,0.153-0.855,1.113-1.369,1.113c-0.512,0-1.111,0.202-0.938,0.908
									c0.17,0.708,0.513,1.212,0,1.515c-0.512,0.303,0.083,1.516,0.769,1.616c0.683,0.103,1.456-0.503,2.051-0.806
									c0.599-0.303,1.455-0.909,1.455-1.819c0-0.911-0.17-1.719-0.513-2.122C169.832,40.741,169.233,40.641,168.72,40.741z"/>
								<path fill="#bbb" d="M169.662,37.712c-0.692,0.272-0.429,1.311-0.086,1.818c0.343,0.503,0.941,1.616,1.795,2.02
									c0.855,0.405,2.652,0.808,1.97,1.213c-0.685,0.405-2.665,2.394-2.834,3c-0.173,0.606,2.235,0.334,2.235,0.334
									s-0.516,0.708-0.086,0.909c0.426,0.203,0.685-0.706,1.367-0.706c0.684,0,2.051,0.506,2.737,0.506c0.685,0,1.794-1.112,1.71-1.819
									c-0.086-0.708-0.942-1.817-1.71-2.223c-0.77-0.405-1.625-2.224-2.138-2.627c-0.512-0.405,1.899-1.743,1.3-2.447
									c-0.599-0.708-2.412-0.278-3.098-0.786c-0.683-0.505-1.282,0.103-1.711,0.708C170.688,38.216,170.174,37.508,169.662,37.712z"/>
								<path fill="#bbb" d="M175.305,51.754c-0.087-0.909-1.795-1.719-2.907-1.919c-1.112-0.201-0.942-0.807,0.257-0.908
									c1.198-0.103,1.111-0.606,2.137-0.809c1.025-0.202,2.054-0.505,2.823-0.605c0.769-0.103,0.769-0.911,0.769-1.516
									s2.138-0.81,2.138-0.81s1.197-1.311,1.881-1.917c0.686-0.606,1.881-0.506,2.822-0.203c0.941,0.303-0.086-0.708-0.43-1.211
									c-0.342-0.506-0.082-1.618,0.174-2.224c0.256-0.608,1.794-0.911,2.224-0.707c0.426,0.201,0,1.109,0.083,1.92
									c0.087,0.808,0.769,1.313,0.769,1.313l0.687-0.101c0,0,0,0,1.111,0s1.17,0.025,2.025-0.28c0.854-0.302,1.48,0.078,1.824-0.125
									c0.338-0.203,1.279-0.203,2.563,0.303c1.281,0.505,0.599-0.911,0.854-1.719c0.257-0.809,0.77-2.221,1.626-2.122
									c0.855,0.102,1.54,0.708,2.223,0.204c0.684-0.507-1.282-1.213-1.282-1.516s1.625-0.303,3.077-0.405c1.455-0.1,2.311,0,2.996-0.2
									c0.682-0.203-0.514-1.619-0.773-1.619c-0.252,0-1.967,0.203-2.822,0.102c-0.853-0.102-1.795,0.606-2.563,0.809
									c-0.77,0.202-0.942-1.214-1.369-1.819c-0.429-0.606-0.6-1.715,0.514-2.323c1.111-0.605,3.078-1.921,3.418-2.526
									c0.344-0.606-1.365-0.504-2.989-0.405c-1.628,0.102,0.256,0.607-1.285,2.426c-1.538,1.818-2.308,0.606-3.507,1.818
									c-1.197,1.211-0.342,1.313,0.773,1.718c1.109,0.403,0.17,1.617-0.086,1.919c-0.257,0.302-1.541,1.416-1.367,2.223
									c0.168,0.806-0.856,1.313-0.856,1.313s-3.166,0.808-3.765,0.909c-0.596,0.103-0.77-0.505-0.596-1.111
									c0.169-0.608-0.688-2.02-0.77-2.929c-0.087-0.91-1.368,0.403-1.455,1.01c-0.084,0.606-1.711,0.704-2.65,0.303
									c-0.941-0.404-1.454-1.92-1.281-2.223c0.17-0.303-0.512-1.82-0.512-2.224c0-0.402,1.996-3.345,3.621-3.75
									c1.627-0.403,3.559-1.403,4.671-2.41c1.112-1.011,1.624-2.225,1.967-2.527c0.339-0.303,6.249-3.651,8.386-4.057
									c2.139-0.401,6.834,2.037,7.604,2.238s1.198,0.503,3.079,1.314c1.88,0.808,3.658-0.074,4.853,0.128
									c1.199,0.203,1.816,1.488,2.588,1.893c0.769,0.405,0,0.708-1.885,1.413c-1.881,0.708-3.162,0.507-4.188,0.102
									c-1.028-0.405-1.624-0.405-0.855,0.201c0.77,0.606,0.514,0.91,0.595,1.819c0.088,0.91,1.286,0.103,1.542-0.101
									c0.256-0.203,0.256-0.605,1.199,0.101c0.938,0.708,1.281,0.303,1.707,0.203c0.43-0.1,0.087-1.212,0.343-1.617
									c0.257-0.405,1.285-0.405,1.542-0.605c0.256-0.201,0.852-0.503,1.365-0.606c0.512-0.103,0.428,0.909,0.941,1.211
									c0.514,0.303,0.256-1.314,0.083-1.715c-0.169-0.405-0.339-1.516-0.083-1.821c0.256-0.303,2.053-0.505,2.48-0.1
									c0.427,0.405-0.684,1.616-0.428,2.322c0.256,0.708,0.854-0.401,1.283-1.009c0.426-0.605,1.365,0,2.904-0.303
									s1.199-1.313,2.82-0.708c1.629,0.606,1.199,0.606,1.715,0c0.512-0.605,1.452,0.103,2.389-0.303c0.943-0.405,0.943,0,1.629,0.405
									c0.684,0.404,1.539-0.81,1.881-1.213c0.341-0.405,1.709-0.405,2.395-0.303c0.686,0.1,1.537,0.606,2.224,0.606
									c0.683,0,1.794,0.605,1.794,0.605s1.455,0.608,1.797,0.203c0.34-0.405-0.086-0.91-1.37-1.618c-1.282-0.704-0.769-1.916,0-2.018
									c0.771-0.102,0.687-0.606,1.284-1.011c0.6-0.403,1.367-1.919,2.052-1.616c0.684,0.303,1.283,0.908,2.139,1.414
									c0.853,0.506,0.084,1.213-0.085,1.717c-0.171,0.507,0.169,2.425,0.426,2.727c0.259,0.305-0.257,1.416-0.94,1.922
									c-0.685,0.503-1.626,1.616-1.368,1.817c0.254,0.201,2.309-0.908,2.309-0.908s1.284-1.819,1.881-2.323
									c0.598-0.508,1.197-0.508,1.367,0.1c0.174,0.606,1.112,0.808,1.968,0.404c0.854-0.404,0-0.707-0.083-1.616
									c-0.086-0.911-1.455-0.404-2.228-0.203c-0.769,0.203-1.368,1.113-1.621,1.113c-0.259,0-0.259-0.607-0.087-1.518
									c0.17-0.908-0.342-1.412-0.342-1.916c0-0.507,0.256-0.507,0.855-1.516c0.598-1.013,0.598,0.706,0.682,1.614
									c0.086,0.909,0.686,0.508,1.199,0.405c0.513-0.102,0.256-1.313,0.686-1.919c0.426-0.607,1.369-0.708,2.221,0.203
									c0.855,0.911,0.77,0.606,1.797,1.009c1.025,0.405,1.112,0.507,1.198,1.416c0.083,0.909,0.77,1.009,1.194,0.704
									c0.427-0.303,0.088-1.514-0.169-1.916c-0.256-0.405-2.31-1.113-2.995-1.821c-0.684-0.708,0.342-0.708,1.114-0.708
									c0.77,0,2.221,0.102,2.221,0.102s1.624-0.405,2.479-1.113c0.855-0.705,1.455-0.705,2.311-1.11c0.854-0.404,2.225-0.404,3.08-0.2
									c0.853,0.2,1.451-0.405,2.307-0.81c0.854-0.403,1.978-3.036,2.053-0.503c0.011,0.326,2.392,0.806,2.734,0.708
									c0.342-0.102,1.201-0.233,2.479-1.012c2.479-1.512,0.333-2.228,1.281-0.809c0.331,0.495,1.372-0.403,3.167,0.505
									c1.794,0.911,0,0,0.512,0.608c0.512,0.605,0.77-0.103,1.967-0.305c1.199-0.201,1.969,0,2.736,0.102c0.77,0.1,2.48,0.1,3.25,0.706
									s-0.513,1.919-0.941,2.325c-0.427,0.403,0.685,0.706,1.027,0.605c0.34-0.102,3.162,0,4.444,0.201
									c1.286,0.202,1.798,0.911,2.394,0.911c0.599,0,1.541-0.303,1.883-0.708c0.344-0.403,2.478-0.605,3.164-0.706
									c0.683-0.102,2.566,0,2.822,0.201c0.257,0.202,0.513,1.213,0.513,2.021c0,0.81,0.77,1.514,1.368,1.617
									c0.6,0.102,1.71-1.212,2.139-1.414c0.425-0.203,0.938,0.91,1.193,0.607c0.258-0.303,2.397,0.098,3.254-0.405
									c0.852-0.505,1.365,0,1.793-0.202c0.428-0.203,1.111-1.314,1.111-1.719c0-0.403,0.344-0.706,0-1.312
									c-0.342-0.606-1.539-0.205-2.822-0.606c-1.281-0.405,0.055-2.509,0.43-1.416c0.212,0.617,1.365,0,2.221,0.204
									c0.855,0.201,0.516-0.304,0.941-0.304c0.43,0,1.967,0.505,2.82,0.505c0.855,0,1.541,1.109,1.541,1.109s-2.395,0.811-2.906,0.811
									c-0.514,0-0.174,0.806,0.256,0.806c0.427,0,1.025,0.304,1.624,0.81c0.601,0.505,3.249,0,3.59,0c0.343,0,1.371,0.505,2.396,1.211
									c1.025,0.708,1.709,1.011,1.709,1.011s1.455,0,2.909-0.201c1.451-0.205,3.335-0.205,3.674,0.099
									c0.344,0.303,1.286,0.606,1.969,1.314c0.683,0.708,1.195,0.405,2.137,0.303c0.942-0.103,1.885-0.303,2.736-0.303
									c0.857,0,3.677-0.103,4.189,0.809c0.514,0.91,1.112,0.707,1.112,0.707s0.772-1.618,1.112-1.921
									c0.343-0.302,1.454,0.205,2.137,0.606c0.686,0.405,4.019,0,4.873,0.205c0.855,0.201,2.054,1.211,1.371,2.02
									c-0.687,0.808,0.513,2.224,0.257,3.03c-0.257,0.808-0.943,0.908-1.628,1.111c-0.683,0.203,0.685,1.213,1.284,1.921
									c0.6,0.708-0.341,0.909-0.94,0.605c-0.6-0.303-2.138,0.102-4.104,0.708c-1.968,0.606-2.737,1.817-4.788,1.918
									c-2.054,0.102-1.198-0.101-3.761-0.101c-2.565,0-2.482,0.809-2.995,1.819c-0.513,1.009,0.257,0.809,0,1.614
									c-0.256,0.811-0.682,1.719-0.682,2.428c0,0.706-1.541,0.808-2.054,1.414c-0.514,0.607-1.369,2.122-2.824,3.231
									c-1.451,1.113-2.476,2.832-2.476,2.832s0.256-1.719,0.938-2.93c0.683-1.212-0.77-2.931-0.855-4.244
									c-0.083-1.313,0.43-1.719,1.281-2.93c0.855-1.211,2.909-1.617,3.765-2.222c0.855-0.608,4.361-3.434,4.361-3.434
									s-0.686,0.504-1.538,0.909c-0.858,0.401-1.884,1.211-2.567,1.211s-0.425-0.81-0.513-1.616c-0.086-0.807-1.71-0.201-2.31,0.606
									c-0.599,0.808-1.711,1.313-2.905,2.324c-1.199,1.011-0.855,0.908-1.625,1.011c-0.773,0.101-2.054-0.506-2.65-1.011
									c-0.6-0.505-1.197,0.403-3.078,0.505c-1.881,0.1-4.021-0.202-4.875-0.102c-0.855,0.102-2.992,3.031-4.275,3.536
									s-2.907,1.416-2.479,2.124c0.427,0.706,1.195-0.608,1.538-0.608s-0.256,1.417,0.513,1.417c0.77,0,1.195-0.507,1.967-0.607
									c0.77-0.1,1.369,0.706,1.539,1.819c0.172,1.109-0.34,2.02-0.684,3.436c-0.342,1.415-0.855,2.826-2.223,4.04
									c-1.368,1.213-3.592,3.435-4.021,4.041c-0.428,0.606-1.964,0.102-2.222-0.303c-0.256-0.405-1.024,0.909-1.624,1.211
									s-1.198,0.91-1.198,1.719c0,0.808-1.707,0.808-1.707,1.314c0,0.503,1.024,1.919,1.45,2.625c0.427,0.708-0.087,2.932-0.855,3.436
									c-0.77,0.503-1.108,1.109-2.137,0.405c-1.026-0.708-0.171-1.113,0.257-2.224c0.43-1.112-0.428-1.717-0.6-2.02
									c-0.17-0.303-0.856,0.605-1.195,0.706c-0.342,0.102-0.342-0.91-0.088-1.516c0.258-0.605-0.168-1.917-0.424-2.018
									c-0.258-0.102-1.883,1.515-2.567,1.413c-0.687-0.099-0.087-1.917,0.169-2.423c0.26-0.505-0.513-0.102-1.024,0.403
									c-0.513,0.506-1.625,1.619-2.05,1.516c-0.431-0.102-1.286,0.807-0.6,1.413c0.682,0.607,0.941,1.113,1.367,1.213
									c0.427,0.102,1.539-0.202,1.968-0.303c0.425-0.1,1.281,0.708,0.425,1.617c-0.854,0.91-2.648,1.012-2.305,1.618
									c0.339,0.606,1.194,1.515,1.88,2.928c0.683,1.414,0.425,2.929,0.599,4.042c0.17,1.11-2.479,3.433-3.252,4.142
									c-0.769,0.707-1.537,2.424-2.82,3.232c-1.283,0.811-4.021,1.515-4.446,1.212c-0.431-0.303-1.625,0.507-1.538,1.617
									c0.083,1.112,0.683,1.011,0.683,1.313c0,0.303-0.855,1.517-1.196,2.022c-0.342,0.503-1.54,0-1.367-1.516
									c0.17-1.518,1.025-2.123,0.938-2.831c-0.082-0.704-0.854-1.108-1.367-0.503c-0.514,0.606-2.137,2.322-2.137,2.322
									s0.599,1.82,1.367,2.527c0.77,0.708,1.282,1.714,2.311,3.231c1.025,1.518,0.256,2.828,0,3.942c-0.256,1.11-1.111,1.11-1.797,1.312
									c-0.687,0.201-0.855,0.506-1.113,1.113c-0.256,0.605-1.491,3.506-1.664,3c-0.17-0.506-1.241-3.912-1.241-3.912
									s-0.772-1.819-1.88-2.727c-1.113-0.908-1.539-1.313-1.539-0.402c0,0.908-0.686,2.624-0.686,3.231c0,0.606-1.541-1.819-1.541-2.829
									s-0.256-2.729-0.17-4.342c0.087-1.617-1.795-0.104-1.795-0.104s-1.454,3.624-1.879,3.624c-0.431,0,0-3.32,0.082-4.532
									c0.086-1.211-0.426-2.324-0.682-2.727c-0.258-0.405-1.713-2.02-1.969-3.133c-0.256-1.111-0.77-0.706-1.281-0.098
									c-0.513,0.604-0.342,0.604-2.394,0.604c-2.054,0-1.968,1.515-2.996,2.424c-1.025,0.91-1.877,2.627-3.076,3.232
									c-1.198,0.605-1.71,1.211-1.71,1.92c0,0.707,0.482,3.036,0.227,4.047c-0.257,1.013-0.91,1.914-1.51,2.925
									c-0.599,1.011-1.11,2.625-1.623,2.625c-0.514,0-0.687-1.412-0.687-2.322c0-0.909-1.452-3.03-1.794-3.738
									c-0.342-0.707-1.624-3.838-1.624-3.838s-1.024-3.333-0.939-4.245c0.084-0.909,0.084-3.434,0.084-3.434s-1.367,1.617-1.967,1.514
									c-0.601-0.101-1.196-1.211-1.113-2.525c0.086-1.313-1.024-1.213-1.624-1.416c-0.599-0.201-1.367-2.018-1.795-2.018
									c-0.43,0-0.686,0-1.024,0.606c-0.343,0.605-2.138,0.503-2.567,0.503s-2.992-0.102-3.762-0.405
									c-0.769-0.302-1.624-2.121-2.053-2.321c-0.427-0.202-1.709,1.109-2.221,0.909c-0.514-0.201-1.541-1.213-2.654-1.819
									c-1.108-0.606-1.451-2.021-1.879-2.929c-0.428-0.908-1.882,0.504-1.713,1.516c0.174,1.008,2.055,2.324,2.055,3.032
									c0,0.703,0.342,0.908,1.281,1.816c0.943,0.908,0.172,1.415,0.77,1.615c0.6,0.202,1.454-0.809,2.31-1.312
									c0.856-0.507,0.77-1.211,1.198-1.211c0.427,0,0.34,1.312,1.026,1.412c0.681,0.102,2.479,1.313,2.905,2.124
									c0.43,0.806-0.426,1.313-0.77,2.018c-0.342,0.708-1.368,2.729-2.223,3.538c-0.855,0.808-1.795,1.917-3.079,2.22
									c-1.282,0.304-1.452,1.113-2.478,1.213c-1.025,0.101-3.848,1.72-4.276,2.022c-0.428,0.305-2.737,1.109-3.419,0.809
									c-0.686-0.304-0.941-2.324-1.199-3.84c-0.256-1.514-0.596-2.325-0.852-2.929c-0.257-0.606-1.798-2.223-2.141-2.526
									c-0.344-0.303-1.195-2.728-1.281-3.738c-0.087-1.011-1.025-0.608-1.195-1.717c-0.174-1.113-1.116-2.628-1.285-3.336
									c-0.17-0.708-1.881,0.103-2.563,0.203c-0.686,0.102-1.967-0.606-1.798-2.224c0.17-1.613,0.855-1.613,1.711-1.613
									c0.856,0,0.513-0.507,1.368-1.518c0.852-1.01,1.112-3.028,1.194-4.342c0.088-1.316-0.599-0.708-1.279-0.505
									c-0.685,0.201-1.711,0.505-2.052,0.403c-0.343-0.101-1.711-0.606-1.968-0.303c-0.26,0.303-1.71,0.101-2.051-0.403
									c-0.342-0.508-2.055-1.113-2.227-1.516c-0.17-0.405,0-2.829-0.343-3.436c-0.341-0.605-1.108,0.103-1.538,0.506
									c-0.427,0.405-1.621,0.708-1.281,1.01c0.343,0.303,1.454,0.909,1.367,1.715c-0.086,0.81-0.855,1.012-1.281,1.416
									c-0.426,0.405-1.983,2.004-2.239,1.499c-0.257-0.505-0.414-3.721-0.67-4.126c-0.256-0.401-1.024-1.413-1.282-2.323
									c-0.256-0.908-1.194-1.213-1.794-1.921c-0.599-0.704-2.31-1.817-2.993-2.624c-0.686-0.808-1.883-1.416-1.967-0.405
									c-0.086,1.011,1.199,1.212,1.711,2.223c0.514,1.011,1.625,1.617,2.221,1.919c0.6,0.303,2.227,1.617,2.227,1.617
									s-0.686,0.303-1.285,0.202c-0.598-0.101,0.338,2.178,0.256,2.883c-0.088,0.708-1.111-0.257-1.28-1.063
									c-0.173-0.811-0.687-1.719-1.026-2.021c-0.342-0.303-2.566-1.111-2.908-1.314c-0.343-0.202-1.795-1.313-1.965-2.222
									c-0.173-0.909-1.454-1.011-1.797-0.807c-0.344,0.201-1.625,1.31-2.224,1.31c-0.597,0-1.538-0.503-2.224-0.605
									c-0.684-0.098-0.769,1.313-1.025,2.122c-0.257,0.81-1.368,0.202-1.965,0.91c-0.599,0.708-1.628,1.416-1.371,2.021
									c0.259,0.606,0.685,0.606-0.083,1.11c-0.773,0.505-1.199,1.516-1.968,1.616c-0.769,0.103-1.794,0.505-2.224,0.203
									c-0.429-0.303-0.769,1.011-1.025,1.314c-0.257,0.305-0.686-0.909-1.112-1.414c-0.429-0.506-1.538-0.103-1.88-0.203
									c-0.343-0.103-0.687-1.011-1.112-1.414c-0.429-0.405-0.343-1.313,0-1.617c0.34-0.302,0.683-0.808,0.426-1.717
									c-0.256-0.91-0.426-2.932,0.43-3.333c0.856-0.405,2.906,0,3.932,0c1.028,0,2.786,0.42,3.079-0.204
									C175.218,53.673,175.391,52.665,175.305,51.754z M207.542,33.972c-0.291,0.953,1.968,1.719,2.394,1.011
									C210.364,34.274,207.968,32.56,207.542,33.972z M204.635,58.423c0.17,0.403,1.025-0.608,1.709-0.608
									c0.682,0,2.224,0.304,2.653-0.404c0.426-0.708,1.794-0.808,2.905-0.607c1.111,0.203,2.055,1.113,2.822,1.213
									c0.77,0.102,2.82-0.101,3.506-0.303c0.682-0.203,0.513-1.619-0.599-2.323c-1.112-0.708-2.054-1.819-3.078-2.224
									c-1.026-0.403-1.37-0.808-0.771-1.01c0.6-0.201,1.369-1.009,0.513-1.009s-1.624,0.303-1.712,0.808
									c-0.082,0.505-0.599,1.111-0.938,1.313c-0.342,0.203-1.197,1.009-1.455,0.404c-0.256-0.606-1.194-2.425-1.624-2.525
									c-0.426-0.102-1.112,0-1.625,1.009c-0.513,1.01-1.111,2.023-1.624,2.425c-0.514,0.404-1.195,1.616-0.684,1.819
									C205.148,56.603,204.635,58.423,204.635,58.423z M224.217,51.348c-1.038,0.818-1.369,1.921-0.942,2.628
									c0.429,0.708,1.624,2.93,2.224,3.133c0.599,0.201,2.736,0.605,1.881,1.516c-0.855,0.909-1.025,1.211-1.797,1.109
									c-0.77-0.099-0.427,2.425,0.172,2.627c0.6,0.202,2.395,0.911,2.994,1.011c0.598,0.1,2.566-0.203,2.479-0.809
									c-0.086-0.607-0.429-3.03-1.111-3.636c-0.686-0.607,0.941-1.213,0.513-1.718s-1.024-0.303-1.368-0.908
									c-0.344-0.606-0.512-1.211-1.025-1.617c-0.514-0.405-0.939,0.406-0.855-0.708c0.086-1.111,1.281-1.819,1.794-1.211
									c0.514,0.605,2.054,0.302,2.397,0c0.342-0.303-0.687-1.213-0.942-1.821c-0.257-0.606-1.968-1.109-2.224-0.909
									c-0.256,0.205-0.939,0.811-1.625,1.313C226.097,51.854,224.729,50.944,224.217,51.348z"/>
								<path fill="#bbb" d="M234.045,22.758c-0.628,0.749-1.963,0.504-2.904-0.102c-0.941-0.606-2.051-0.705-2.564-0.909
									c-0.512-0.201,0.084-1.414,0.684-1.716c0.6-0.303,2.223-1.213,3.422-1.82c1.195-0.605,1.538-1.816,2.394-1.816
									s4.96-1.011,5.473-0.809c0.512,0.203,2.989,0.403,3.505-0.405c0.514-0.809,2.307-0.303,1.883,0.405
									c-0.428,0.706-1.969,2.322-2.994,2.02c-1.025-0.303-3.936-0.201-5.217,0c-1.281,0.2-2.48,1.111-3.592,1.818
									c-1.111,0.708-0.855,1.516-0.426,1.617C234.133,21.142,234.56,22.153,234.045,22.758z"/>
								<path fill="#bbb" d="M320.582,42.865c-0.494,0.166-1.969-0.203-1.455,1.211c0.512,1.412,0.6,2.425,0.512,3.536
									c-0.082,1.112,0,3.434,0.174,3.736c0.17,0.303,0.853,1.011,1.281,0.809c0.427-0.201-0.172-2.221-0.172-2.625
									c0-0.405,0.599-1.011,0.941-1.111s0-1.819-0.43-2.527c-0.426-0.708-1.025-1.109-0.682-1.211c0.342-0.103,0.769-0.909,0.513-1.113
									C321.008,43.368,321.178,42.662,320.582,42.865z"/>
								<path fill="#bbb" d="M319.727,53.167c-0.634,0.185-0.855,1.213-0.855,1.516s-2.395,0.909-1.625,1.717
									c0.77,0.808,1.541,0.202,2.736,0.1c1.195-0.1,2.311-0.503,2.311-0.503s1.794,0.098,1.538-0.908
									c-0.257-1.011-2.139-1.113-2.48-1.011C321.008,54.18,320.408,52.967,319.727,53.167z"/>
								<path fill="#bbb" d="M317.758,57.109c-0.629,0.447-0.256,2.224-0.768,3.436c-0.514,1.211-0.941,2.322-1.282,2.322
									c-0.344,0-2.138,0.809-2.652,1.414c-0.513,0.606-2.99-0.504-3.333,0c-0.344,0.508-1.025,1.113-1.455,1.515
									c-0.43,0.405-1.624,0.102-1.368,1.313c0.257,1.213,0.855,2.324,1.368,2.324c0.512,0,1.198-0.403,1.198-1.516
									c0-1.111,1.195,0,1.794-0.101c0.6-0.1,0.94-0.808,1.195-1.616c0.26-0.807-0.34,0.404,0.687,0.708
									c1.028,0.303,1.368-0.507,1.368-0.811c0-0.302,1.881-0.806,2.223-1.109c0.344-0.303,1.711-0.809,1.799-1.213
									c0.082-0.404,0-2.728,0.426-2.929c0.427-0.205,1.025-0.205,0.342-1.617C318.613,57.815,318.613,56.501,317.758,57.109z"/>
								<path fill="#bbb" d="M298.946,77.008c-1.266,0.233-2.05,3.438-1.024,3.337C298.946,80.244,300.059,76.808,298.946,77.008z"/>
								<path fill="#bbb" d="M351.706,148.539c-0.344,0.2,0,1.314,0.342,1.715c0.343,0.405,0.513,1.819,0.427,2.225
									c-0.084,0.403-1.539,0.909-0.855,1.412c0.686,0.509,1.967,0,1.797,0.606s-0.855,1.417-0.086,1.616
									c0.769,0.203,1.024-0.707,1.367-1.41c0.344-0.709,0.6-1.315,1.195-1.721c0.599-0.402,0-1.313-0.34-1.313
									c-0.343,0-0.512,0.505-1.281,0c-0.769-0.506-0.6-0.303-1.111-1.314C352.646,149.344,352.561,148.032,351.706,148.539z"/>
								<path fill="#bbb" d="M351.02,155.005c-0.137,0.488-0.853,0.605-1.365,1.107c-0.513,0.507,0,0.709-1.455,1.72
									c-1.454,1.011-3.249,2.12-3.592,3.028c-0.339,0.911,0.343,1.416,1.712,1.517c1.367,0.102,1.023,0.404,1.967-0.808
									c0.939-1.212,1.794-1.92,2.906-2.929c1.112-1.012,1.112-2.528,1.112-2.528S351.106,154.703,351.02,155.005z"/>
								<path fill="#bbb" d="M322.463,155.811c-0.942,1.111,0.941,1.111,0.685,2.223c-0.255,1.112,1.281,0.707,1.71,0.506
									c0.425-0.202,1.453-2.528,1.28-3.134c-0.171-0.605-1.88,1.011-2.307,0.91C323.404,156.216,322.463,155.811,322.463,155.811z"/>
								<path fill="#bbb" d="M316.221,147.933c0-1.033-0.513,1.107-0.856,0.199c-0.343-0.908,0.344-2.424-0.512-1.817
									c-0.855,0.607-1.282,1.11-1.368,1.618c-0.086,0.503-1.625,0.705-1.541,0.199c0.086-0.504,0.686-1.716,0.086-2.221
									c-0.6-0.509-1.625-0.709-2.393-1.012c-0.77-0.303,0.086-1.313-1.969-0.81c-2.05,0.507-2.818,1.112-2.818,1.112
									s-1.884-0.708-2.48,0.102c-0.6,0.808-0.939,3.379-0.939,3.379s-2.909-0.953-3.426-0.853c-0.512,0.103-1.363,0.908-2.133,1.21
									c-0.772,0.304-2.055,0.606-2.566,0.104c-0.512-0.506-1.367-1.414-1.111-2.021s2.137-1.415,1.453-2.427
									c-0.686-1.008-1.111-1.213-1.197-1.816c-0.086-0.607,0.256-0.91-0.77-2.123c-1.025-1.211-0.769-2.626-0.342-2.826
									c0.429-0.205-1.423-1.416-1.762-1.922c-0.344-0.506,0.822-2.322,1.506-2.83c0.685-0.504,2.734-2.423,3.334-2.423
									s1.538,0.304,2.138-0.202c0.599-0.506,2.393-0.303,2.393-0.708c0-0.403-0.497-3.656-0.071-4.159
									c0.43-0.508,2.895,0.623,3.152,0.218c0.254-0.401,0.681-2.118,1.193-2.422c0.516-0.304,0.943-1.009,1.715,0
									c0.768,1.011,1.538,1.415,1.877,0.404c0.344-1.011,0.087-0.708,0.855-1.616c0.77-0.91-0.086-2.426,0.687-1.518
									c0.769,0.91,1.282,1.618,1.282,1.618s-0.084-2.021,0.429-2.021s1.026,1.01,1.282,1.01s2.564-0.607,2.992,0.1
									c0.426,0.708-1.198,2.627-0.599,3.335c0.599,0.708,1.794,1.109,2.649,1.718c0.855,0.605,1.881,2.021,2.311,0.811
									c0.426-1.214,1.281-3.031,0.683-3.941c-0.597-0.908,0.173-3.841,0.429-4.041c0.256-0.201,0.683,2.322,1.538,3.436
									c0.855,1.11,1.711,1.918,2.138,3.128c0.429,1.214,0.512,3.336,1.281,4.044c0.769,0.707,3.73,0.654,3.643,1.564
									c-0.082,0.908,0.291,2.678,1.23,4.396c0.942,1.719,2.757,5.741,2.757,7.358c0,1.616-2.757,3.453-3.525,4.666
									c-0.77,1.211-1.026,2.828-1.365,3.434c-0.343,0.604-0.173,0.506-1.454,0.908c-1.285,0.404-2.224,1.615-2.566,1.213
									c-0.341-0.402-1.539-1.11-1.881-0.606c-0.343,0.506-0.77,1.615-1.369,0.404c-0.6-1.213-1.967-1.011-2.223-1.213
									c-0.258-0.2-0.258-0.81-0.258-1.819c0-1.008-1.109-1.109-1.197-1.412C316.477,148.539,316.221,148.236,316.221,147.933z"/>
								<path fill="#bbb" d="M355.636,128.129c1.116,0.504,3.08-1.819,2.312-2.122C357.179,125.704,355.636,128.129,355.636,128.129z"/>
								<path fill="#bbb" d="M344.78,133.179c-0.167,0.984-1.197,0.508-1.711-0.4c-0.515-0.909-1.539-1.617,0-1.213
									C344.607,131.968,344.865,132.675,344.78,133.179z"/>
								<path fill="#bbb" d="M272.698,100.246c-1.062,0.252,1.539,2.427,1.795,2.729c0.257,0.304,2.565,2.626,2.565,3.738
									c0,1.111,0.744,4.568,1.172,4.973c0.428,0.406,3.359,1.09,3.702,1.898c0.343,0.806,1.111,1.01,1.111-0.104
									c0-1.11,0.171-2.425,0.597-3.03c0.429-0.607,0.256-1.517-0.426-1.413c-0.684,0.102-1.282-1.314-2.395-2.223
									c-1.111-0.91-1.966-1.516-2.992-2.828c-1.024-1.313-2.311-2.123-2.993-2.83C274.15,100.448,273.125,100.146,272.698,100.246z"/>
								<path fill="#bbb" d="M276.031,94.892c-0.683,0.101-0.683,1.617-0.343,2.123c0.343,0.504,1.028,0.201,1.454,2.018
									c0.43,1.819,1.285,3.64,1.625,4.348c0.342,0.703,1.798,1.715,2.31,2.22c0.513,0.505,1.282-0.202,0.942-0.808
									c-0.344-0.606-1.029-1.515-1.116-2.223c-0.083-0.707-0.513-1.818-1.194-3.031c-0.686-1.213-1.281-1.516-1.711-2.322
									C277.572,96.406,276.031,94.892,276.031,94.892z"/>
								<path fill="#bbb" d="M283.215,113.988c-0.625,0.92,0.17,1.615,0.426,1.816s1.197,0.403,2.055,0.303
									c0.855-0.102,2.05-0.404,1.111-1.01c-0.942-0.605-2.054,0-2.397-0.807C284.069,113.48,283.559,113.48,283.215,113.988z"/>
								<path fill="#bbb" d="M288.174,114.794c-0.599,0.303-1.537,0.503-0.855,1.211c0.684,0.707,1.112,1.011,2.138,0.91
									c1.026-0.102,2.567,0.606,2.649,0c0.088-0.605-0.938-1.516-1.364-1.516C290.312,115.4,288.174,114.794,288.174,114.794z"/>
								<path fill="#bbb" d="M296.554,118.129c-0.192,0.901,1.281,1.313,1.368,0.302C298.004,117.421,296.727,117.32,296.554,118.129z"
									/>
								<path fill="#bbb" d="M301.087,118.836c0.133,1.104,1.879-0.606,1.879-0.606s1.37-0.201,1.37-0.91
									c0-0.707-1.37-1.617-1.885-0.809C301.939,117.32,301.001,118.129,301.087,118.836z"/>
								<path fill="#bbb" d="M297.322,107.522c-0.513,0.2-0.426,0.708-0.596,1.716c-0.173,1.01-0.941,1.717-0.26,2.223
									c0.686,0.506,1.968-1.717,2.311-1.011c0.343,0.708-0.086,1.011,0.513,1.92c0.599,0.91,1.711,0.808,1.711,0.808
									s-0.087-2.424-1.026-3.031c-0.941-0.606-1.54-1.311-0.43-1.109c1.113,0.201,1.713-0.305,1.456-0.908
									c-0.256-0.606-1.881-0.305-2.397-0.202C298.092,108.025,297.322,107.522,297.322,107.522z"/>
								<path fill="#bbb" d="M297.835,105.5c-0.595,0.706-0.17,1.414,0.769,1.314c0.941-0.102,2.91-0.405,3.336-0.405
									c0.43,0,1.026-1.313,0.686-1.313c-0.344,0-2.736,0.505-2.993,0.607C299.376,105.803,297.835,105.5,297.835,105.5z"/>
								<path fill="#bbb" d="M306.557,104.083c-0.785-0.395-2.221,3.336-1.194,3.639C306.387,108.025,307.156,104.386,306.557,104.083z"
									/>
								<path fill="#bbb" d="M294.842,98.732c-0.033-0.715-1.367,0.2-1.455,0.908c-0.082,0.707,0.943,1.313-0.682,1.313
									c-1.623,0-1.708,1.517-2.051,1.821c-0.343,0.303-0.687,0.4-1.371,0.605c-0.683,0.2-0.853,1.006-1.025,1.514
									c-0.17,0.504-1.365-0.908-1.707-0.508c-0.344,0.406-0.088,2.326,0.512,3.943c0.6,1.615,2.138,2.625,2.563,2.625
									c0.431,0,1.286,0,1.885,0.203c0.596,0.2,2.563,0.402,2.478-0.506s-0.257-2.322,0.6-3.232c0.855-0.908,1.71-1.414,1.284-2.729
									c-0.429-1.311-1.284-2.121-0.686-2.727c0.6-0.606,1.281-0.809,1.281-1.314C296.467,100.146,295.016,102.066,294.842,98.732z"/>
								<path fill="#bbb" d="M299.033,84.487c-0.599,0,0.087,1.112-0.769,1.819c-0.855,0.705-1.798,1.007-1.285,2.221
									c0.513,1.213,2.311,2.123,1.882,2.629c-0.427,0.504-1.709,1.514-1.882,2.423c-0.17,0.908,2.054-1.417,2.652-2.325
									s1.796-0.402,2.052-0.908c0.256-0.505,0.256-0.505,0.256-0.505s-0.938-0.202-1.709-0.505c-0.771-0.305-1.71,0.809-1.284-0.809
									c0.43-1.615,1.712-1.313,1.455-2.524C300.146,84.79,299.29,84.487,299.033,84.487z"/>
								<path fill="#bbb" d="M299.803,93.275c-0.291,0.125-1.025,1.92-0.084,1.92c0.939,0,2.563,0.305,2.221-0.202
									C301.6,94.487,300.745,92.871,299.803,93.275z"/>
								<path fill="#bbb" d="M302.625,91.76c-0.344-0.028-1.453,2.121,0.083,2.019C304.251,93.681,303.821,91.861,302.625,91.76z"/>
								<path fill="#bbb" d="M302.881,95.5c-1.197,1.819-1.111,1.414-1.967,1.01s-2.223,0.908-1.968,1.415
									c0.257,0.504,2.141-0.102,2.567,0.808c0.426,0.908,0.426,1.01,1.281,0.807c0.855-0.201,1.711-1.614,1.456-2.322
									C303.994,96.509,302.881,95.5,302.881,95.5z"/>
								<path fill="#bbb" d="M308.697,107.419c-0.644,0.758-0.942,0.811,0.513,1.113c1.451,0.303,1.882,0.303,1.282,1.109
									c-0.6,0.808-1.026,1.818-0.514,1.918c0.514,0.104,2.051-0.402,2.222,0c0.172,0.406-0.341,0.506,1.37,0.81
									c1.709,0.306,2.051,1.013,2.394,1.414c0.341,0.405,1.368,1.719,0.685,1.719c-0.685,0-1.453,1.009-0.94,1.11
									c0.513,0.1,2.05-0.303,2.138,0c0.086,0.303,0.941,2.224,1.793,2.123c0.856-0.104,1.369-1.922,1.795-2.426
									c0.43-0.506,2.141-0.808,2.31,0.101c0.174,0.909,0.686,1.819,1.712,2.426c1.025,0.606,2.223,1.212,2.311,0.705
									c0.082-0.504-0.517-2.423-1.199-2.728c-0.685-0.303-1.88-2.02-1.88-2.729c0-0.703-1.025-0.908-1.539-1.41
									c-0.515-0.506-0.941-1.922-2.226-2.226c-1.283-0.304-1.623-0.808-2.99-1.614c-1.371-0.811-4.447-0.811-4.533-0.303
									c-0.084,0.504,0,0-1.026-0.404c-1.024-0.406-1.794,0-2.05-0.709C310.065,106.712,309.466,106.511,308.697,107.419z"/>
							</g>
						</svg>